<svg width="2000" height="2000" viewBox="0 0 2000 2000" fill="none" xmlns="http://www.w3.org/2000/svg">
<rect width="2000" height="2000" fill="white"/>
<path fill-rule="evenodd" clip-rule="evenodd" d="M1000.52 838.62C979.843 800.763 951.364 769.646 918 746.302C987.76 640.594 1105.7 570.384 1242.32 570.002C1458.73 569.35 1635.32 754.056 1636 969H1520.75C1521.25 925.863 1511.55 872.007 1490.19 831.116C1420.77 697.93 1255.17 645.694 1121.08 714.646C1066.25 742.842 1025.33 787.17 1000.52 838.62ZM1083.77 1065.8C1095.3 1088.64 1110.69 1108.1 1128.5 1124C1145.94 1079.17 1157.83 1030.28 1162.76 978.27C1164.8 956.921 1173.93 887.61 1250.93 883.191C1300.64 880.361 1343.01 918.069 1343.22 969H1450.97C1451.48 937.057 1444.54 912.888 1429.19 882.559C1379.88 785.024 1262.28 746.791 1167.03 797.278C1071.81 847.811 1034.43 968.285 1083.77 1065.8ZM675.804 969.179C675.987 1019.31 722.344 1052.11 767.194 1050.45C824.238 1048.38 855.432 1000.6 856.3 961.627C857.465 910.278 868.106 861.229 885.873 816C906.54 832.679 924.306 853.684 937.254 878.852C986.557 974.833 949.175 1093.36 853.925 1143.05C758.676 1192.79 641.002 1155.11 591.676 1059.15C575.782 1028.25 568.999 1002.03 570.118 969.502L675.804 969.179ZM513.556 1112.18C583.443 1245.38 750 1297.64 884.97 1228.69C940.11 1200.49 981.254 1156.21 1006.17 1104.76C1025.7 1140.22 1052.12 1169.62 1083 1192.36C1013.77 1300.53 900.627 1369.57 761.059 1370C543.345 1370.63 365.705 1183.98 365 969H482.835C481.765 1013.21 491.551 1070.23 513.556 1112.18Z" fill="#59089E"/>
</svg>
