<?xml version="1.0" encoding="UTF-8"?>
<svg width="24" height="24" viewBox="0 0 24 24" fill="none" xmlns="http://www.w3.org/2000/svg">
  <path d="M12 2C6.477 2 2 6.477 2 12C2 16.418 4.865 20.166 8.839 21.489C9.339 21.581 9.521 21.27 9.521 21.001C9.521 20.76 9.512 20.14 9.508 19.31C6.726 19.908 6.139 17.784 6.139 17.784C5.685 16.666 5.029 16.35 5.029 16.35C4.121 15.662 5.097 15.673 5.097 15.673C6.101 15.75 6.629 16.715 6.629 16.715C7.521 18.34 9.97 17.81 9.52 17.54C9.329 16.69 8.892 16.18 8.446 15.91C7.273 15.18 8.446 15.18 8.446 15.18C8.639 15.18 9.048 15.35 9.52 15.91C10.004 16.46 10.647 16.66 11.279 16.66C11.911 16.66 12.554 16.46 13.038 15.91C13.51 15.35 13.919 15.18 14.112 15.18C14.112 15.18 15.285 15.18 14.112 15.91C13.666 16.18 13.229 16.69 13.038 17.54C12.588 17.81 15.037 18.34 15.929 16.715C15.929 16.715 16.457 15.75 17.461 15.673C17.461 15.673 18.437 15.662 17.529 16.35C17.529 16.35 16.873 16.666 16.419 17.784C16.419 17.784 15.832 19.908 13.05 19.31C13.046 20.14 13.037 20.76 13.037 21.001C13.037 21.27 13.219 21.581 13.719 21.489C17.693 20.166 20.558 16.418 20.558 12C20.558 6.477 16.081 2 12 2Z" fill="currentColor"/>
</svg> 